REM DIRINDEX 1\8,1\2\11,1\3\12,1\3\14,1\5\15,1\5\16,1\6\17,1\6\18,1\4\19,1\4\20,1\4\21,1\4\22,1\7\23,1\7\24,1\7\25,1\2\9\26,1\2\9\27,1\2\10\28,1\2\10\29,1\2\10\30,1\2\10\31,1\2\10\32,1\3\13\33,1\3\13\34,1\3\13\35
REM DIRNAME cjc123,folder01,folder02,folder03,folder04,folder05,folder06,folder07,folder08,folder09,folder10,folder11,folder12,folder13,folder14,folder15,folder16,folder17,folder18,folder19,folder20,folder21,folder22,folder23,folder24,folder25,folder26,folder27,folder28,folder29,folder30,folder31,folder32,folder33,folder34
TITLE ""
FILE "133 133_例文UNIT2_SET5.mp3" MP3
  TRACK 01 AUDIO
    TITLE "22:cjc123_3096"
    INDEX 01 00:00:00
  TRACK 02 AUDIO
    TITLE "0:"
    INDEX 01 00:02:53
  TRACK 03 AUDIO
    TITLE "19:cjc123_3097"
    INDEX 01 00:03:37
  TRACK 04 AUDIO
    TITLE "0:"
    INDEX 01 00:08:07
  TRACK 05 AUDIO
    TITLE "20:cjc123_3098"
    INDEX 01 00:08:50
  TRACK 06 AUDIO
    TITLE "0:"
    INDEX 01 00:13:41
  TRACK 07 AUDIO
    TITLE "21:cjc123_3099"
    INDEX 01 00:13:67
  TRACK 08 AUDIO
    TITLE "0:"
    INDEX 01 00:18:37
  TRACK 09 AUDIO
    TITLE "19:cjc123_3100"
    INDEX 01 00:19:20
  TRACK 10 AUDIO
    TITLE "0:"
    INDEX 01 00:23:12
  TRACK 11 AUDIO
    TITLE "20:cjc123_3101"
    INDEX 01 00:23:59
  TRACK 12 AUDIO
    TITLE "0:"
    INDEX 01 00:28:13
  TRACK 13 AUDIO
    TITLE "21:cjc123_3102"
    INDEX 01 00:28:45
  TRACK 14 AUDIO
    TITLE "0:"
    INDEX 01 00:32:37
  TRACK 15 AUDIO
    TITLE "19:cjc123_3103"
    INDEX 01 00:33:26
  TRACK 16 AUDIO
    TITLE "0:"
    INDEX 01 00:36:25
  TRACK 17 AUDIO
    TITLE "20:cjc123_3104"
    INDEX 01 00:36:56
  TRACK 18 AUDIO
    TITLE "0:"
    INDEX 01 00:40:01
  TRACK 19 AUDIO
    TITLE "21:cjc123_3105"
    INDEX 01 00:40:28
  TRACK 20 AUDIO
    TITLE "0:"
    INDEX 01 00:43:29
  TRACK 21 AUDIO
    TITLE "19:cjc123_3106"
    INDEX 01 00:44:03
  TRACK 22 AUDIO
    TITLE "0:"
    INDEX 01 00:47:28
  TRACK 23 AUDIO
    TITLE "20:cjc123_3107"
    INDEX 01 00:47:62
  TRACK 24 AUDIO
    TITLE "0:"
    INDEX 01 00:51:44
  TRACK 25 AUDIO
    TITLE "21:cjc123_3108"
    INDEX 01 00:51:71
  TRACK 26 AUDIO
    TITLE "0:"
    INDEX 01 00:55:20
  TRACK 27 AUDIO
    TITLE "19:cjc123_3109"
    INDEX 01 00:55:71
  TRACK 28 AUDIO
    TITLE "0:"
    INDEX 01 01:00:39
  TRACK 29 AUDIO
    TITLE "20:cjc123_3110"
    INDEX 01 01:01:01
  TRACK 30 AUDIO
    TITLE "0:"
    INDEX 01 01:05:69
  TRACK 31 AUDIO
    TITLE "21:cjc123_3111"
    INDEX 01 01:06:22
  TRACK 32 AUDIO
    TITLE "0:"
    INDEX 01 01:10:65
  TRACK 33 AUDIO
    TITLE "19:cjc123_3112"
    INDEX 01 01:11:45
  TRACK 34 AUDIO
    TITLE "0:"
    INDEX 01 01:15:03
  TRACK 35 AUDIO
    TITLE "20:cjc123_3113"
    INDEX 01 01:15:46
  TRACK 36 AUDIO
    TITLE "0:"
    INDEX 01 01:19:17
  TRACK 37 AUDIO
    TITLE "21:cjc123_3114"
    INDEX 01 01:19:48
  TRACK 38 AUDIO
    TITLE "0:"
    INDEX 01 01:23:07
  TRACK 39 AUDIO
    TITLE "19:cjc123_3115"
    INDEX 01 01:23:62
  TRACK 40 AUDIO
    TITLE "0:"
    INDEX 01 01:27:57
  TRACK 41 AUDIO
    TITLE "20:cjc123_3116"
    INDEX 01 01:28:24
  TRACK 42 AUDIO
    TITLE "0:"
    INDEX 01 01:31:53
  TRACK 43 AUDIO
    TITLE "21:cjc123_3117"
    INDEX 01 01:32:04
  TRACK 44 AUDIO
    TITLE "0:"
    INDEX 01 01:36:01
  TRACK 45 AUDIO
    TITLE "19:cjc123_3118"
    INDEX 01 01:36:58
  TRACK 46 AUDIO
    TITLE "0:"
    INDEX 01 01:40:38
  TRACK 47 AUDIO
    TITLE "20:cjc123_3119"
    INDEX 01 01:40:72
  TRACK 48 AUDIO
    TITLE "0:"
    INDEX 01 01:44:15
  TRACK 49 AUDIO
    TITLE "21:cjc123_3120"
    INDEX 01 01:44:42
  TRACK 50 AUDIO
    TITLE "0:"
    INDEX 01 01:48:20
  TRACK 51 AUDIO
    TITLE "19:cjc123_3121"
    INDEX 01 01:48:71
  TRACK 52 AUDIO
    TITLE "0:"
    INDEX 01 01:52:71
  TRACK 53 AUDIO
    TITLE "20:cjc123_3122"
    INDEX 01 01:53:25
  TRACK 54 AUDIO
    TITLE "0:"
    INDEX 01 01:57:58
  TRACK 55 AUDIO
    TITLE "21:cjc123_3123"
    INDEX 01 01:58:11
  TRACK 56 AUDIO
    TITLE "0:"
    INDEX 01 02:02:09
  TRACK 57 AUDIO
    TITLE "19:cjc123_3124"
    INDEX 01 02:02:62
  TRACK 58 AUDIO
    TITLE "0:"
    INDEX 01 02:06:12
  TRACK 59 AUDIO
    TITLE "20:cjc123_3125"
    INDEX 01 02:06:57
  TRACK 60 AUDIO
    TITLE "0:"
    INDEX 01 02:10:26
  TRACK 61 AUDIO
    TITLE "21:cjc123_3126"
    INDEX 01 02:10:57
  TRACK 62 AUDIO
    TITLE "0:"
    INDEX 01 02:14:08
  TRACK 63 AUDIO
    TITLE "19:cjc123_3127"
    INDEX 01 02:14:69
  TRACK 64 AUDIO
    TITLE "0:"
    INDEX 01 02:18:49
  TRACK 65 AUDIO
    TITLE "20:cjc123_3128"
    INDEX 01 02:19:07
  TRACK 66 AUDIO
    TITLE "0:"
    INDEX 01 02:22:56
  TRACK 67 AUDIO
    TITLE "21:cjc123_3129"
    INDEX 01 02:23:07
  TRACK 68 AUDIO
    TITLE "0:"
    INDEX 01 02:26:62
  TRACK 69 AUDIO
    TITLE "19:cjc123_3130"
    INDEX 01 02:27:40
  TRACK 70 AUDIO
    TITLE "0:"
    INDEX 01 02:30:46
  TRACK 71 AUDIO
    TITLE "20:cjc123_3131"
    INDEX 01 02:31:06
  TRACK 72 AUDIO
    TITLE "0:"
    INDEX 01 02:34:01
  TRACK 73 AUDIO
    TITLE "21:cjc123_3132"
    INDEX 01 02:34:26
  TRACK 74 AUDIO
    TITLE "0:"
    INDEX 01 02:37:33
  TRACK 75 AUDIO
    TITLE "19:cjc123_3133"
    INDEX 01 02:38:08
  TRACK 76 AUDIO
    TITLE "0:"
    INDEX 01 02:42:59
  TRACK 77 AUDIO
    TITLE "20:cjc123_3134"
    INDEX 01 02:43:12
  TRACK 78 AUDIO
    TITLE "0:"
    INDEX 01 02:46:63
  TRACK 79 AUDIO
    TITLE "21:cjc123_3135"
    INDEX 01 02:47:17
  TRACK 80 AUDIO
    TITLE "0:"
    INDEX 01 02:51:68
  TRACK 81 AUDIO
    TITLE "19:cjc123_3136"
    INDEX 01 02:52:40
  TRACK 82 AUDIO
    TITLE "0:"
    INDEX 01 02:56:67
  TRACK 83 AUDIO
    TITLE "20:cjc123_3137"
    INDEX 01 02:57:39
  TRACK 84 AUDIO
    TITLE "0:"
    INDEX 01 03:01:43
  TRACK 85 AUDIO
    TITLE "21:cjc123_3138"
    INDEX 01 03:01:72
  TRACK 86 AUDIO
    TITLE "0:"
    INDEX 01 03:06:24
  TRACK 87 AUDIO
    TITLE "19:cjc123_3139"
    INDEX 01 03:07:20
  TRACK 88 AUDIO
    TITLE "0:"
    INDEX 01 03:11:08
  TRACK 89 AUDIO
    TITLE "20:cjc123_3140"
    INDEX 01 03:11:49
  TRACK 90 AUDIO
    TITLE "0:"
    INDEX 01 03:16:19
  TRACK 91 AUDIO
    TITLE "21:cjc123_3141"
    INDEX 01 03:16:46
  TRACK 92 AUDIO
    TITLE "0:"
    INDEX 01 03:20:36
